:SAMPLES-PER-SECOND 30
:FULLY-SPECIFIED
:DEGREES
1119
root  4.07196 40.9801 -1.90553 -164.145 -86.4484 158.743
RightUpLeg  3.3393 -8.97969 -7.67615
RightLeg  5.24455 -3.566 2.50726
RightFoot  -1.02496 -0.0644141 0.659018
RightToes  -4.65663e-010 0 -3.6325e-017
Spine  4.65777 -1.9862 15.8541
Spine1  10.537 3.5154 -18.2782
HEad  -33.7473 34.6674 -55.4456
LeftShoulder1  8.96494 -16.01 -39.701
LeftArm  -14.2342 25.1586 -27.3254
LeftForeArm  32.4743 -33.7531 -5.63107
LeftHand  -0.244104 0.0205437 5.32207
RightShoulder  7.45209 12.1085 41.4983
RightArm  -0.627034 -8.65218 34.9998
RightForeArm  3.07052 21.6913 4.79395
RightHand  -0.484184 -0.758767 -12.1104
LeftUpLeg  6.48103 6.03879 4.49891
LeftLeg  0.912911 12.114 -4.21499
LeftFoot  -1.20249 0.0554562 -0.529293
LeftToes  4.18335e-011 1.59304e-011 3.38507e-012
1120
root  4.184 40.9795 -1.9612 -164.55 -86.5771 159.132
RightUpLeg  3.20354 -8.95439 -7.51432
RightLeg  5.24329 -3.73917 2.57491
RightFoot  -0.910416 -0.0551889 0.531915
RightToes  -4.65663e-010 0 -3.6325e-017
Spine  4.51925 -1.82469 15.6062
Spine1  10.9828 3.75835 -18.3344
HEad  -24.8831 39.0517 -53.5622
LeftShoulder1  8.85397 -15.7719 -39.6949
LeftArm  -14.4107 24.7767 -27.5203
LeftForeArm  32.5002 -33.686 -5.61313
LeftHand  -0.244104 0.0205437 5.32207
RightShoulder  7.43762 12.1229 41.3701
RightArm  -0.397728 -8.51913 34.317
RightForeArm  2.28559 22.1286 4.81614
RightHand  -0.501633 -0.666552 -12.3114
LeftUpLeg  6.25842 6.03496 4.61955
LeftLeg  1.00705 11.9729 -4.11529
LeftFoot  -1.08068 0.05998 -0.59779
LeftToes  4.18335e-011 1.59304e-011 3.38507e-012
1121
root  4.29841 40.9786 -2.00686 -164.249 -86.839 158.851
RightUpLeg  3.08669 -8.94488 -7.37576
RightLeg  5.1727 -4.01258 2.65408
RightFoot  -0.76871 -0.0516227 0.494064
RightToes  -4.65663e-010 0 -3.6325e-017
Spine  4.16044 -1.66636 15.3217
Spine1  11.655 3.93828 -18.1588
HEad  -14.5825 42.4787 -49.4495
LeftShoulder1  8.77944 -15.4471 -40.0702
LeftArm  -14.169 23.9236 -27.3407
LeftForeArm  32.375 -33.1869 -5.49684
LeftHand  -0.244104 0.0205437 5.32207
RightShoulder  7.36593 12.0134 41.2523
RightArm  -0.151413 -7.87326 33.5991
RightForeArm  1.45986 21.8329 4.87752
RightHand  -0.511863 -0.62007 -12.4452
LeftUpLeg  5.95835 6.07142 4.75612
LeftLeg  1.13826 11.667 -4.06156
LeftFoot  -0.96203 0.0629801 -0.626626
LeftToes  4.18335e-011 1.59304e-011 3.38507e-012
1122
root  4.42035 40.9761 -2.04303 -163.622 -87.1995 158.274
RightUpLeg  2.94723 -8.91126 -7.22051
RightLeg  5.09221 -4.3992 2.71388
RightFoot  -0.623998 -0.0513045 0.50794
RightToes  -4.65663e-010 0 -3.6325e-017
Spine  3.70497 -1.55553 15.0723
Spine1  12.3923 4.05009 -17.9335
HEad  -3.17445 44.5 -43.3028
LeftShoulder1  8.74019 -15.1065 -40.6728
LeftArm  -13.8421 22.945 -26.9598
LeftForeArm  32.1303 -32.6271 -5.37363
LeftHand  -0.244104 0.0205437 5.32207
RightShoulder  7.25871 11.843 41.0918
RightArm  -0.180374 -6.92452 33.1259
RightForeArm  1.30261 20.9936 4.96488
RightHand  -0.494722 -0.751171 -12.3547
LeftUpLeg  5.56174 6.1444 4.92267
LeftLeg  1.35984 11.2366 -4.02697
LeftFoot  -0.897519 0.0735541 -0.732615
LeftToes  4.18335e-011 1.59304e-011 3.38507e-012
1123
root  4.54807 40.9702 -2.07222 -162.434 -87.6004 157.185
RightUpLeg  2.71624 -8.88737 -7.07191
RightLeg  5.08113 -4.84088 2.77681
RightFoot  -0.520742 -0.0493269 0.49381
RightToes  -4.65663e-010 0 -3.6325e-017
Spine  3.2696 -1.46759 14.8706
Spine1  12.9821 4.12131 -17.7312
HEad  9.03403 44.7797 -35.7742
LeftShoulder1  8.73981 -14.8478 -41.2936
LeftArm  -13.6564 22.2063 -26.6297
LeftForeArm  31.8499 -32.312 -5.31296
LeftHand  -0.244104 0.0205437 5.32207
RightShoulder  7.1592 11.7149 40.8515
RightArm  -0.60864 -6.15055 32.9708
RightForeArm  1.76995 20.1911 5.06368
RightHand  -0.481518 -0.838593 -12.2474
LeftUpLeg  5.0666 6.17596 5.05293
LeftLeg  1.63776 10.8263 -3.95288
LeftFoot  -0.893079 0.0899786 -0.920359
LeftToes  4.18335e-011 1.59304e-011 3.38507e-012
1124
root  4.67528 40.9633 -2.09457 -159.29 -88.0214 154.212
RightUpLeg  2.39677 -8.90947 -6.98005
RightLeg  5.10463 -5.29066 2.86196
RightFoot  -0.436758 -0.0464021 0.459174
RightToes  -4.65663e-010 0 -3.6325e-017
Spine  2.87083 -1.3857 14.5825
Spine1  13.3992 4.12579 -17.4203
HEad  20.8244 43.1742 -28.2761
LeftShoulder1  8.75493 -14.6079 -41.9625
LeftArm  -13.3249 21.6428 -26.2473
LeftForeArm  31.6697 -32.3103 -5.3226
LeftHand  -0.244104 0.0205437 5.32207
RightShoulder  7.06003 11.5971 40.5787
RightArm  -0.882406 -5.61775 32.9561
RightForeArm  2.17107 19.762 5.12507
RightHand  -0.49635 -0.710688 -12.2922
LeftUpLeg  4.48788 6.11947 5.07721
LeftLeg  1.90082 10.5132 -3.83338
LeftFoot  -0.892394 0.101051 -1.04683
LeftToes  4.18335e-011 1.59304e-011 3.38507e-012
1125
root  4.80047 40.9591 -2.11028 -152.172 -88.4604 147.323
RightUpLeg  2.04511 -8.94405 -6.9369
RightLeg  5.08006 -5.75405 2.94281
RightFoot  -0.316178 -0.0458145 0.451457
RightToes  -4.65663e-010 0 -3.6325e-017
Spine  2.46658 -1.33732 13.9923
Spine1  13.9043 3.99385 -16.7603
HEad  30.1593 40.0532 -22.1497
LeftShoulder1  8.75886 -14.2093 -42.9952
LeftArm  -12.4727 20.781 -25.3983
LeftForeArm  31.5059 -32.5327 -5.38557
LeftHand  -0.244104 0.0205437 5.32207
RightShoulder  6.93193 11.3933 40.3711
RightArm  -0.578015 -4.97725 32.8745
RightForeArm  2.13877 19.723 5.1451
RightHand  -0.516447 -0.544456 -12.3679
LeftUpLeg  3.85162 6.02478 5.02247
LeftLeg  2.13125 10.2347 -3.71975
LeftFoot  -0.865013 0.104731 -1.08566
LeftToes  4.18335e-011 1.59304e-011 3.38507e-012
1126
root  4.92666 40.956 -2.12154 -139.275 -88.8663 134.665
RightUpLeg  1.70071 -8.95406 -6.89999
RightLeg  5.01827 -6.20868 3.00323
RightFoot  -0.184903 -0.0483295 0.478981
RightToes  -4.65663e-010 0 -3.6325e-017
Spine  2.1305 -1.33142 13.0222
Spine1  14.6823 3.71868 -15.6602
HEad  35.6973 36.0477 -17.5057
LeftShoulder1  8.8041 -13.6695 -44.6628
LeftArm  -11.2667 19.3804 -23.8252
LeftForeArm  31.1173 -32.8882 -5.494
LeftHand  -0.244104 0.0205437 5.32207
RightShoulder  6.78529 11.1237 40.2349
RightArm  0.0408954 -4.14025 32.7486
RightForeArm  1.79516 20.0911 5.1013
RightHand  -0.513443 -0.567171 -12.3514
LeftUpLeg  3.20568 5.96113 4.97462
LeftLeg  2.36858 9.92847 -3.63619
LeftFoot  -0.871776 0.11747 -1.22515
LeftToes  4.18335e-011 1.59304e-011 3.38507e-012
1127
root  5.05306 40.9486 -2.12993 -119.699 -89.1657 115.325
RightUpLeg  1.35178 -8.9648 -6.85315
RightLeg  4.97516 -6.60582 3.08415
RightFoot  -0.136298 -0.0551893 0.554458
RightToes  -4.65663e-010 0 -3.6325e-017
Spine  2.07102 -1.33347 11.8557
Spine1  15.4383 3.37998 -14.3516
HEad  37.5339 31.5701 -13.7107
LeftShoulder1  8.99444 -13.262 -46.8063
LeftArm  -10.2394 17.8302 -21.74
LeftForeArm  30.4885 -33.2554 -5.61974
LeftHand  -0.244104 0.0205437 5.32207
RightShoulder  6.66423 10.8916 40.1474
RightArm  0.422222 -3.46991 32.7149
RightForeArm  1.44114 20.799 4.99675
RightHand  -0.499346 -0.70074 -12.3418
LeftUpLeg  2.55291 5.93459 4.97137
LeftLeg  2.67338 9.63275 -3.5424
LeftFoot  -0.999317 0.148547 -1.57473
LeftToes  4.18335e-011 1.59304e-011 3.38507e-012
1128
root  5.17012 40.9357 -2.13325 -94.5316 -89.3271 90.4619
RightUpLeg  0.941098 -9.00521 -6.79662
RightLeg  4.93091 -6.9567 3.21981
RightFoot  -0.1892 -0.0701087 0.704696
RightToes  -4.65663e-010 0 -3.6325e-017
Spine  2.35503 -1.33718 10.7796
Spine1  15.686 3.05893 -13.2202
HEad  36.7855 26.8801 -10.3635
LeftShoulder1  9.30071 -13.1378 -48.7907
LeftArm  -9.60807 16.6655 -19.7755
LeftForeArm  29.8285 -33.3231 -5.67385
LeftHand  -0.244104 0.0205437 5.32207
RightShoulder  6.60713 10.7416 40.2295
RightArm  0.461667 -3.21374 32.7392
RightForeArm  1.28272 21.4511 4.91674
RightHand  -0.503107 -0.708623 -12.4541
LeftUpLeg  1.81147 5.9166 4.97457
LeftLeg  3.0681 9.41222 -3.40048
LeftFoot  -1.23691 0.181447 -1.97367
LeftToes  4.18335e-011 1.59304e-011 3.38507e-012
1129
root  5.26365 40.9227 -2.12826 -70.1062 -89.3523 66.4752
RightUpLeg  0.408529 -9.04742 -6.72951
RightLeg  4.87043 -7.29123 3.36212
RightFoot  -0.263395 -0.0869252 0.877596
RightToes  -4.65663e-010 0 -3.6325e-017
Spine  2.75598 -1.34461 9.9183
Spine1  15.4004 2.77415 -12.4315
HEad  34.6406 22.2935 -7.42752
LeftShoulder1  9.52821 -13.1428 -49.97
LeftArm  -9.13044 15.95 -18.614
LeftForeArm  29.1885 -32.7126 -5.55989
LeftHand  -0.244104 0.0205437 5.32207
RightShoulder  6.62775 10.6696 40.5894
RightArm  0.57732 -3.19057 32.6922
RightForeArm  1.27418 21.6056 4.90468
RightHand  -0.521152 -0.587562 -12.5883
LeftUpLeg  0.952684 5.88608 4.9291
LeftLeg  3.4804 9.29967 -3.23991
LeftFoot  -1.46736 0.200531 -2.23035
LeftToes  4.18335e-011 1.59304e-011 3.38507e-012
1130
root  5.32473 40.9147 -2.11583 -56.8629 -89.3076 53.73
RightUpLeg  -0.200604 -9.0509 -6.66255
RightLeg  4.85495 -7.55848 3.43341
RightFoot  -0.290093 -0.0947418 0.955385
RightToes  -4.65663e-010 0 -3.6325e-017
Spine  3.03789 -1.36005 9.17465
Spine1  15.0287 2.50286 -11.7722
HEad  31.5504 18.2592 -5.06736
LeftShoulder1  9.57022 -13.1236 -50.2452
LeftArm  -8.48968 15.4189 -18.4564
LeftForeArm  28.416 -31.4029 -5.28641
LeftHand  -0.244104 0.0205437 5.32207
RightShoulder  6.69606 10.685 40.9952
RightArm  0.941332 -3.15216 32.6576
RightForeArm  1.41878 21.2264 4.94167
RightHand  -0.523368 -0.558511 -12.5678
LeftUpLeg  0.14505 5.83754 4.83548
LeftLeg  3.76891 9.30169 -3.13003
LeftFoot  -1.58005 0.209004 -2.34809
LeftToes  4.18335e-011 1.59304e-011 3.38507e-012
1131
root  5.3551 40.9129 -2.10003 -54.4931 -89.2957 51.751
RightUpLeg  -0.694913 -9.01525 -6.60359
RightLeg  4.8708 -7.69873 3.4328
RightFoot  -0.26067 -0.0937088 0.914276
RightToes  -4.65663e-010 0 -3.6325e-017
Spine  3.24463 -1.35496 8.41729
Spine1  14.8818 2.213 -10.9158
HEad  27.4703 15.2675 -3.49914
LeftShoulder1  9.54777 -13.136 -50.0916
LeftArm  -7.53752 14.9663 -18.8512
LeftForeArm  27.5211 -29.8806 -4.97737
LeftHand  -0.244104 0.0205437 5.32207
RightShoulder  6.75187 10.7655 41.1126
RightArm  1.257 -3.05078 32.8125
RightForeArm  1.90231 20.5926 5.01798
RightHand  -0.506289 -0.660751 -12.4114
LeftUpLeg  -0.387769 5.79507 4.7588
LeftLeg  3.86114 9.36435 -3.1037
LeftFoot  -1.56034 0.210895 -2.38419
LeftToes  4.18335e-011 1.59304e-011 3.38507e-012
